<mxfile host="app.diagrams.net" modified="2023-06-06T08:07:41.484Z" agent="Mozilla/5.0 (Windows NT 10.0; Win64; x64) AppleWebKit/537.36 (KHTML, like Gecko) Chrome/96.0.4664.45 Safari/537.36" etag="MdvqzScslGInK94ip61n" version="21.3.7" type="github">
  <diagram name="第 1 页" id="TfHMZJk8MIIu702UfsVt">
    <mxGraphModel dx="1050" dy="548" grid="1" gridSize="10" guides="1" tooltips="1" connect="1" arrows="1" fold="1" page="1" pageScale="1" pageWidth="827" pageHeight="1169" math="0" shadow="0">
      <root>
        <mxCell id="0" />
        <mxCell id="1" parent="0" />
        <mxCell id="CTVz_8gY4L93_RzqVuW7-5" style="rounded=0;orthogonalLoop=1;jettySize=auto;html=1;exitX=0;exitY=1;exitDx=0;exitDy=0;entryX=0.5;entryY=0;entryDx=0;entryDy=0;" edge="1" parent="1" source="CTVz_8gY4L93_RzqVuW7-1" target="CTVz_8gY4L93_RzqVuW7-2">
          <mxGeometry relative="1" as="geometry" />
        </mxCell>
        <mxCell id="CTVz_8gY4L93_RzqVuW7-6" style="edgeStyle=orthogonalEdgeStyle;rounded=0;orthogonalLoop=1;jettySize=auto;html=1;exitX=0.5;exitY=1;exitDx=0;exitDy=0;entryX=0.5;entryY=0;entryDx=0;entryDy=0;" edge="1" parent="1" source="CTVz_8gY4L93_RzqVuW7-1" target="CTVz_8gY4L93_RzqVuW7-3">
          <mxGeometry relative="1" as="geometry" />
        </mxCell>
        <mxCell id="CTVz_8gY4L93_RzqVuW7-7" style="rounded=0;orthogonalLoop=1;jettySize=auto;html=1;exitX=1;exitY=1;exitDx=0;exitDy=0;entryX=0.5;entryY=0;entryDx=0;entryDy=0;" edge="1" parent="1" source="CTVz_8gY4L93_RzqVuW7-1" target="CTVz_8gY4L93_RzqVuW7-4">
          <mxGeometry relative="1" as="geometry" />
        </mxCell>
        <mxCell id="CTVz_8gY4L93_RzqVuW7-1" value="&lt;font style=&quot;font-size: 14px;&quot;&gt;roundabout-v0&lt;/font&gt;" style="rounded=0;whiteSpace=wrap;html=1;" vertex="1" parent="1">
          <mxGeometry x="360" y="100" width="120" height="60" as="geometry" />
        </mxCell>
        <mxCell id="CTVz_8gY4L93_RzqVuW7-9" value="" style="edgeStyle=orthogonalEdgeStyle;rounded=0;orthogonalLoop=1;jettySize=auto;html=1;" edge="1" parent="1" source="CTVz_8gY4L93_RzqVuW7-2" target="CTVz_8gY4L93_RzqVuW7-8">
          <mxGeometry relative="1" as="geometry" />
        </mxCell>
        <mxCell id="CTVz_8gY4L93_RzqVuW7-2" value="&lt;font style=&quot;font-size: 14px;&quot;&gt;envs&lt;/font&gt;" style="rounded=0;whiteSpace=wrap;html=1;" vertex="1" parent="1">
          <mxGeometry x="80" y="220" width="120" height="60" as="geometry" />
        </mxCell>
        <mxCell id="CTVz_8gY4L93_RzqVuW7-11" value="" style="edgeStyle=orthogonalEdgeStyle;rounded=0;orthogonalLoop=1;jettySize=auto;html=1;" edge="1" parent="1" source="CTVz_8gY4L93_RzqVuW7-3" target="CTVz_8gY4L93_RzqVuW7-10">
          <mxGeometry relative="1" as="geometry" />
        </mxCell>
        <mxCell id="CTVz_8gY4L93_RzqVuW7-3" value="&lt;font style=&quot;font-size: 14px;&quot;&gt;road&lt;/font&gt;" style="rounded=0;whiteSpace=wrap;html=1;" vertex="1" parent="1">
          <mxGeometry x="360" y="220" width="120" height="60" as="geometry" />
        </mxCell>
        <mxCell id="CTVz_8gY4L93_RzqVuW7-4" value="&lt;font style=&quot;font-size: 14px;&quot;&gt;vehicle&lt;/font&gt;" style="rounded=0;whiteSpace=wrap;html=1;" vertex="1" parent="1">
          <mxGeometry x="640" y="220" width="120" height="60" as="geometry" />
        </mxCell>
        <mxCell id="CTVz_8gY4L93_RzqVuW7-14" value="" style="edgeStyle=orthogonalEdgeStyle;rounded=0;orthogonalLoop=1;jettySize=auto;html=1;" edge="1" parent="1" source="CTVz_8gY4L93_RzqVuW7-8" target="CTVz_8gY4L93_RzqVuW7-13">
          <mxGeometry relative="1" as="geometry" />
        </mxCell>
        <mxCell id="CTVz_8gY4L93_RzqVuW7-8" value="&lt;font style=&quot;font-size: 14px;&quot;&gt;gym.Env&lt;/font&gt;" style="rounded=0;whiteSpace=wrap;html=1;" vertex="1" parent="1">
          <mxGeometry x="80" y="340" width="120" height="60" as="geometry" />
        </mxCell>
        <mxCell id="CTVz_8gY4L93_RzqVuW7-16" value="" style="edgeStyle=orthogonalEdgeStyle;rounded=0;orthogonalLoop=1;jettySize=auto;html=1;" edge="1" parent="1" source="CTVz_8gY4L93_RzqVuW7-10" target="CTVz_8gY4L93_RzqVuW7-15">
          <mxGeometry relative="1" as="geometry" />
        </mxCell>
        <mxCell id="CTVz_8gY4L93_RzqVuW7-10" value="&lt;font style=&quot;font-size: 14px;&quot;&gt;pygame.Surface&lt;/font&gt;" style="rounded=0;whiteSpace=wrap;html=1;" vertex="1" parent="1">
          <mxGeometry x="360" y="340" width="120" height="60" as="geometry" />
        </mxCell>
        <mxCell id="CTVz_8gY4L93_RzqVuW7-13" value="&lt;font style=&quot;font-size: 14px;&quot;&gt;RoundaboutEnv&lt;/font&gt;" style="rounded=0;whiteSpace=wrap;html=1;" vertex="1" parent="1">
          <mxGeometry x="80" y="460" width="120" height="60" as="geometry" />
        </mxCell>
        <mxCell id="CTVz_8gY4L93_RzqVuW7-15" value="&lt;font style=&quot;font-size: 14px;&quot;&gt;WorldSurface&lt;/font&gt;" style="rounded=0;whiteSpace=wrap;html=1;" vertex="1" parent="1">
          <mxGeometry x="360" y="460" width="120" height="60" as="geometry" />
        </mxCell>
      </root>
    </mxGraphModel>
  </diagram>
</mxfile>
